<?xml version="1.0" encoding="UTF-8" standalone="no"?>
<!-- Created with Inkscape (http://www.inkscape.org/) -->

<svg
   width="210mm"
   height="297mm"
   viewBox="0 0 210 297"
   version="1.1"
   id="svg1"
   xml:space="preserve"
   inkscape:version="1.4 (86a8ad7, 2024-10-11)"
   sodipodi:docname="figures.svg"
   xmlns:inkscape="http://www.inkscape.org/namespaces/inkscape"
   xmlns:sodipodi="http://sodipodi.sourceforge.net/DTD/sodipodi-0.dtd"
   xmlns="http://www.w3.org/2000/svg"
   xmlns:svg="http://www.w3.org/2000/svg"><sodipodi:namedview
     id="namedview1"
     pagecolor="#ffffff"
     bordercolor="#666666"
     borderopacity="1.0"
     inkscape:showpageshadow="2"
     inkscape:pageopacity="0.0"
     inkscape:pagecheckerboard="0"
     inkscape:deskcolor="#d1d1d1"
     inkscape:document-units="mm"
     showguides="true"
     inkscape:zoom="0.36792228"
     inkscape:cx="312.56601"
     inkscape:cy="338.38668"
     inkscape:window-width="1280"
     inkscape:window-height="657"
     inkscape:window-x="1912"
     inkscape:window-y="-8"
     inkscape:window-maximized="1"
     inkscape:current-layer="layer1" /><defs
     id="defs1" /><g
     inkscape:label="Layer 1"
     inkscape:groupmode="layer"
     id="layer1"><path
       style="fill:#1a1a1a;stroke:#ffffff;stroke-width:1.365;stroke-linecap:butt;stroke-linejoin:miter;stroke-dasharray:none;stroke-opacity:1"
       d="m 12.908052,32.552066 h 18.69734 c -0.19293,-5.15435 -1.95946,-8.99737 -6.2156,-10.76571 3.01915,-2.2289 2.82397,-6.76976 -0.48564,-8.63071 1.5687,-2.63616 -0.0619,-5.3570601 -2.69893,-5.3024 -2.7378,0.005 -4.03485,2.84927 -2.55633,5.29091 -3.08413,1.26733 -3.64315,6.4133 -0.62825,8.6422 -3.81728,1.38507 -5.85481,4.97364 -6.11259,10.76571 z"
       id="path1"
       sodipodi:nodetypes="cccccccc"
       inkscape:export-filename="bpawn.png"
       inkscape:export-xdpi="63.119999"
       inkscape:export-ydpi="63.119999" /><g
       id="g25"
       transform="translate(0.55586577,-278.89431)"
       style="fill:#000000"
       inkscape:export-filename="brook.png"
       inkscape:export-xdpi="63.119999"
       inkscape:export-ydpi="63.119999"><path
         style="fill:#000000;stroke:#ffffff;stroke-width:1.365;stroke-linecap:butt;stroke-linejoin:round;stroke-dasharray:none;stroke-opacity:1"
         d="m 9.5059777,324.32688 h 5.0114253 v 1.62195 h 2.337167 v -1.62195 h 6.022699 v 1.62195 h 2.067495 v -1.62195 h 5.056372 v 4.99076 H 9.5059777 Z"
         id="path20" /><path
         style="fill:#000000;stroke:#ffffff;stroke-width:1.365;stroke-linecap:butt;stroke-linejoin:round;stroke-dasharray:none;stroke-opacity:1"
         d="m 9.5059777,329.31764 2.4437843,2.03401 v 11.94977 h 15.509265 v -11.94977 l 2.542109,-2.03401 z"
         id="path21" /><path
         style="fill:#000000;stroke:#ffffff;stroke-width:1.365;stroke-linecap:butt;stroke-linejoin:round;stroke-dasharray:none;stroke-opacity:1"
         d="m 10.424261,343.30142 h 18.687393 v 3.11454 H 10.424261 Z"
         id="path22" /><path
         style="fill:#000000;stroke:#ffffff;stroke-width:1.365;stroke-linecap:butt;stroke-linejoin:round;stroke-dasharray:none;stroke-opacity:1"
         d="M 7.9453202,346.41596 H 31.590593 v 4.00445 H 7.9453202 Z"
         id="path23" /><path
         style="fill:#000000;stroke:#ffffff;stroke-width:0.5;stroke-linecap:butt;stroke-linejoin:round;stroke-dasharray:none;stroke-opacity:1"
         d="M 11.949762,341.90305 H 27.459027"
         id="path24" /><path
         style="fill:#000000;stroke:#ffffff;stroke-width:0.5;stroke-linecap:butt;stroke-linejoin:round;stroke-dasharray:none;stroke-opacity:1"
         d="M 11.949762,331.35165 H 27.459027"
         id="path25" /></g><g
       id="g30"
       transform="translate(-35.998777,-244.72931)"
       inkscape:export-filename="bknight.png"
       inkscape:export-xdpi="63.119999"
       inkscape:export-ydpi="63.119999"><g
         id="g29"><path
           style="fill:#ffffff;stroke:#000000;stroke-width:0.465;stroke-linecap:butt;stroke-linejoin:round;stroke-dasharray:none;stroke-opacity:1"
           d="m 71.411764,350.41989 c 0.272917,-8.91719 0.05233,-21.22441 -10.802728,-22.99177 l 0.02246,0.94385 c 10.683441,1.13677 9.295666,15.1884 9.169548,22.04963 z"
           id="path29"
           sodipodi:nodetypes="ccccc" /><path
           style="fill:#000000;stroke:#ffffff;stroke-width:1.365;stroke-linecap:butt;stroke-linejoin:round;stroke-dasharray:none;stroke-opacity:1"
           d="m 54.024516,350.0357 h 16.13544 c 1.01177,-13.73956 -2.119675,-20.58986 -9.52845,-21.66373 l -0.02247,-0.94385 -0.893183,-0.46582 c 0.194762,-1.12364 -0.55119,-2.52516 -0.775919,-2.86975 -1.294138,0.58632 -1.773556,1.46618 -2.169226,2.48067 l -1.151292,-0.0154 c -0.971119,-1.53455 -1.80509,-1.76336 -2.864283,-1.95675 -0.433808,1.26626 -0.556645,2.28735 0.356369,3.33783 -3.131525,3.89737 -5.629851,9.71661 -6.008599,11.44475 -0.179782,0.67418 -0.149819,1.3184 0.08989,1.93265 0.210484,0.54776 0.319432,0.89052 0.898909,1.12363 0.550263,0.15876 1.156806,0.17995 1.628944,-0.0318 0.954169,-0.41843 0.707718,-1.53575 1.65208,-1.49632 -1.226421,0.73676 -1.091557,1.90074 -0.449456,2.38212 0.549098,0.38123 2.001687,0.74862 3.774967,-1.64391 0.725631,-0.97904 0.949983,-1.17644 1.994098,-1.84674 1.013735,-0.6508 1.272244,-0.86845 2.285218,-2.12116 0.307073,1.16342 -0.425394,3.41925 -2.124207,5.52566 -2.207183,1.84194 -2.599249,4.62642 -2.82883,6.82792 z"
           id="path26"
           sodipodi:nodetypes="ccccccccccccccccssccc" /><circle
           style="fill:#ffffff;stroke:none;stroke-width:0;stroke-linecap:square;stroke-linejoin:round;stroke-dasharray:none;stroke-opacity:0.55618;paint-order:stroke fill markers"
           id="path27"
           cx="48.879612"
           cy="339.3923"
           r="0.30948859" /><ellipse
           style="fill:#ffffff;stroke:none;stroke-width:1.83466;stroke-linecap:square;stroke-linejoin:round;stroke-dasharray:none;stroke-opacity:0.55618;paint-order:stroke fill markers"
           id="path28"
           ry="1.4096404"
           rx="0.52336103"
           cy="253.43147"
           cx="220.4171"
           transform="rotate(31.833377)" /></g></g><g
       id="g32"
       transform="translate(-0.76148923,-246.16757)"
       style="fill:#ffffff;stroke:#000000"
       inkscape:export-filename="wknight.png"
       inkscape:export-xdpi="63.119999"
       inkscape:export-ydpi="63.119999"><g
         id="g31"
         style="fill:#ffffff;stroke:#000000"><path
           style="fill:#ffffff;stroke:#ffffff;stroke-width:0.465;stroke-linecap:butt;stroke-linejoin:round;stroke-dasharray:none;stroke-opacity:1"
           d="m 71.411764,350.41989 c 0.272917,-8.91719 0.05233,-21.22441 -10.802728,-22.99177 l 0.02246,0.94385 c 10.683441,1.13677 9.295666,15.1884 9.169548,22.04963 z"
           id="path30"
           sodipodi:nodetypes="ccccc" /><path
           style="fill:#ffffff;stroke:#000000;stroke-width:1.365;stroke-linecap:butt;stroke-linejoin:round;stroke-dasharray:none;stroke-opacity:1"
           d="m 54.024516,350.0357 h 16.13544 c 1.01177,-13.73956 -2.119675,-20.58986 -9.52845,-21.66373 l -0.02247,-0.94385 -0.893183,-0.46582 c 0.194762,-1.12364 -0.55119,-2.52516 -0.775919,-2.86975 -1.294138,0.58632 -1.773556,1.46618 -2.169226,2.48067 l -1.151292,-0.0154 c -0.971119,-1.53455 -1.80509,-1.76336 -2.864283,-1.95675 -0.433808,1.26626 -0.556645,2.28735 0.356369,3.33783 -3.131525,3.89737 -5.629851,9.71661 -6.008599,11.44475 -0.179782,0.67418 -0.149819,1.3184 0.08989,1.93265 0.210484,0.54776 0.319432,0.89052 0.898909,1.12363 0.550263,0.15876 1.156806,0.17995 1.628944,-0.0318 0.954169,-0.41843 0.707718,-1.53575 1.65208,-1.49632 -1.226421,0.73676 -1.091557,1.90074 -0.449456,2.38212 0.549098,0.38123 2.001687,0.74862 3.774967,-1.64391 0.725631,-0.97904 0.949983,-1.17644 1.994098,-1.84674 1.013735,-0.6508 1.272244,-0.86845 2.285218,-2.12116 0.307073,1.16342 -0.425394,3.41925 -2.124207,5.52566 -2.207183,1.84194 -2.599249,4.62642 -2.82883,6.82792 z"
           id="path31"
           sodipodi:nodetypes="ccccccccccccccccssccc" /><circle
           style="fill:#000000;stroke:none;stroke-width:0;stroke-linecap:square;stroke-linejoin:round;stroke-dasharray:none;stroke-opacity:0.55618;paint-order:stroke fill markers"
           id="circle31"
           cx="48.879612"
           cy="339.3923"
           r="0.30948859" /><ellipse
           style="fill:#000000;stroke:none;stroke-width:1.83466;stroke-linecap:square;stroke-linejoin:round;stroke-dasharray:none;stroke-opacity:0.55618;paint-order:stroke fill markers"
           id="ellipse31"
           ry="1.4096404"
           rx="0.52336103"
           cy="253.43147"
           cx="220.4171"
           transform="rotate(31.833377)" /></g></g><path
       style="fill:#ffffff;stroke:#000000;stroke-width:1.365;stroke-linecap:butt;stroke-linejoin:miter;stroke-dasharray:none;stroke-opacity:1"
       d="m 48.848288,33.990323 h 18.697334 c -0.192928,-5.15435 -1.95946,-8.99737 -6.215597,-10.76571 3.019146,-2.2289 2.823972,-6.76976 -0.48564,-8.63071 1.568701,-2.63616 -0.06191,-5.3570604 -2.698934,-5.3024004 -2.737793,0.005 -4.03485,2.8492704 -2.556327,5.2909104 -3.084128,1.26733 -3.643149,6.4133 -0.628247,8.6422 -3.817281,1.38507 -5.854811,4.97364 -6.112589,10.76571 z"
       id="path32"
       sodipodi:nodetypes="cccccccc"
       inkscape:export-filename="wpawn.png"
       inkscape:export-xdpi="63.119999"
       inkscape:export-ydpi="63.119999" /><g
       id="g38"
       transform="translate(37.231411,-278.89431)"
       style="fill:#ffffff;stroke:#000000"
       inkscape:export-filename="wrook.png"
       inkscape:export-xdpi="63.119999"
       inkscape:export-ydpi="63.119999"><path
         style="fill:#ffffff;stroke:#000000;stroke-width:1.365;stroke-linecap:butt;stroke-linejoin:round;stroke-dasharray:none;stroke-opacity:1"
         d="m 9.5059777,324.32688 h 5.0114253 v 1.62195 h 2.337167 v -1.62195 h 6.022699 v 1.62195 h 2.067495 v -1.62195 h 5.056372 v 4.99076 H 9.5059777 Z"
         id="path33" /><path
         style="fill:#ffffff;stroke:#000000;stroke-width:1.365;stroke-linecap:butt;stroke-linejoin:round;stroke-dasharray:none;stroke-opacity:1"
         d="m 9.5059777,329.31764 2.4437843,2.03401 v 11.94977 h 15.509265 v -11.94977 l 2.542109,-2.03401 z"
         id="path34" /><path
         style="fill:#ffffff;stroke:#000000;stroke-width:1.365;stroke-linecap:butt;stroke-linejoin:round;stroke-dasharray:none;stroke-opacity:1"
         d="m 10.424261,343.30142 h 18.687393 v 3.11454 H 10.424261 Z"
         id="path35" /><path
         style="fill:#ffffff;stroke:#000000;stroke-width:1.365;stroke-linecap:butt;stroke-linejoin:round;stroke-dasharray:none;stroke-opacity:1"
         d="M 7.9453202,346.41596 H 31.590593 v 4.00445 H 7.9453202 Z"
         id="path36" /><path
         style="fill:#ffffff;stroke:#000000;stroke-width:0.5;stroke-linecap:butt;stroke-linejoin:round;stroke-dasharray:none;stroke-opacity:1"
         d="M 11.949762,341.90305 H 27.459027"
         id="path37" /><path
         style="fill:#ffffff;stroke:#000000;stroke-width:0.5;stroke-linecap:butt;stroke-linejoin:round;stroke-dasharray:none;stroke-opacity:1"
         d="M 11.949762,331.35165 H 27.459027"
         id="path38" /></g><g
       id="g66"
       transform="translate(-77.514127,-214.14921)"
       inkscape:export-filename="bbishop.png"
       inkscape:export-xdpi="63.119999"
       inkscape:export-ydpi="63.119999"><path
         style="fill:#000000;stroke:#ffffff;stroke-width:0.665;stroke-linecap:butt;stroke-linejoin:round;stroke-dasharray:none;stroke-opacity:1"
         d="m 99.094035,350.22972 2.078325,0.63564 h 8.28237 l 2.66963,0.38137 1.017,-1.01701 c -1.01744,-3.44882 -7.30802,-2.58325 -11.969,-3.05099 2.42706,-0.20127 3.95521,-0.76211 4.58445,-1.68251 v -1.93268 c -0.12393,-1.05249 -0.67826,-2.1162 -1.66299,-3.19111 5.18981,-1.96657 4.02265,-9.63949 -3.4608,-12.67465 2.25126,-1.72132 0.73165,-4.49067 -1.538985,-4.49453 -2.159032,0.0306 -3.997851,2.36132 -1.607204,4.49453 -6.515466,2.72687 -8.74256,9.66558 -3.325968,12.67465 -1.067761,1.14342 -1.637071,2.20712 -1.707931,3.19111 v 1.93268 c 0.575412,0.78153 2.088578,1.34237 4.539499,1.68251 -4.558894,0.41828 -10.5757,-0.57275 -11.818596,3.05099 l 1.080563,1.01701 2.351813,-0.38137 h 8.38622 z"
         id="path62"
         sodipodi:nodetypes="ccccccccccccccccccccc" /><path
         style="fill:#000000;stroke:#ffffff;stroke-width:0.264583px;stroke-linecap:butt;stroke-linejoin:miter;stroke-opacity:1"
         d="M 92.452932,343.56354 H 105.75681"
         id="path63" /><path
         style="fill:#000000;stroke:#ffffff;stroke-width:0.264583px;stroke-linecap:butt;stroke-linejoin:miter;stroke-opacity:1"
         d="m 94.160863,340.37243 h 9.932957"
         id="path64" /><path
         style="fill:#000000;stroke:#ffffff;stroke-width:0.264583px;stroke-linecap:butt;stroke-linejoin:miter;stroke-opacity:1"
         d="m 99.094035,331.70124 v 4.13158"
         id="path65" /><path
         style="fill:#000000;stroke:#ffffff;stroke-width:0.264583px;stroke-linecap:butt;stroke-linejoin:miter;stroke-opacity:1"
         d="m 96.992431,333.83058 4.179929,0.0318"
         id="path66" /></g><g
       id="g71"
       transform="translate(-39.630837,-214.14921)"
       style="fill:#ffffff;stroke:#000000"
       inkscape:export-filename="wbishop.png"
       inkscape:export-xdpi="63.119999"
       inkscape:export-ydpi="63.119999"><path
         style="fill:#ffffff;stroke:#000000;stroke-width:0.665;stroke-linecap:butt;stroke-linejoin:round;stroke-dasharray:none;stroke-opacity:1"
         d="m 99.094035,350.22972 2.078325,0.63564 h 8.28237 l 2.66963,0.38137 1.017,-1.01701 c -1.01744,-3.44882 -7.30802,-2.58325 -11.969,-3.05099 2.42706,-0.20127 3.95521,-0.76211 4.58445,-1.68251 v -1.93268 c -0.12393,-1.05249 -0.67826,-2.1162 -1.66299,-3.19111 5.18981,-1.96657 4.02265,-9.63949 -3.4608,-12.67465 2.25126,-1.72132 0.73165,-4.49067 -1.538985,-4.49453 -2.159032,0.0306 -3.997851,2.36132 -1.607204,4.49453 -6.515466,2.72687 -8.74256,9.66558 -3.325968,12.67465 -1.067761,1.14342 -1.637071,2.20712 -1.707931,3.19111 v 1.93268 c 0.575412,0.78153 2.088578,1.34237 4.539499,1.68251 -4.558894,0.41828 -10.5757,-0.57275 -11.818596,3.05099 l 1.080563,1.01701 2.351813,-0.38137 h 8.38622 z"
         id="path67"
         sodipodi:nodetypes="ccccccccccccccccccccc" /><path
         style="fill:#ffffff;stroke:#000000;stroke-width:0.264583px;stroke-linecap:butt;stroke-linejoin:miter;stroke-opacity:1"
         d="M 92.452932,343.56354 H 105.75681"
         id="path68" /><path
         style="fill:#ffffff;stroke:#000000;stroke-width:0.264583px;stroke-linecap:butt;stroke-linejoin:miter;stroke-opacity:1"
         d="m 94.160863,340.37243 h 9.932957"
         id="path69" /><path
         style="fill:#ffffff;stroke:#000000;stroke-width:0.264583px;stroke-linecap:butt;stroke-linejoin:miter;stroke-opacity:1"
         d="m 99.094035,331.70124 v 4.13158"
         id="path70" /><path
         style="fill:#ffffff;stroke:#000000;stroke-width:0.264583px;stroke-linecap:butt;stroke-linejoin:miter;stroke-opacity:1"
         d="m 96.992431,333.83058 4.179929,0.0318"
         id="path71" /></g><g
       id="g99"
       transform="translate(-76.129017,-227.85934)"
       inkscape:export-filename="bking.png"
       inkscape:export-xdpi="63.119999"
       inkscape:export-ydpi="63.119999"><path
         style="fill:#000000;stroke:#ffffff;stroke-width:1;stroke-linecap:butt;stroke-linejoin:round;stroke-dasharray:none;stroke-opacity:1"
         d="m 99.779056,397.11297 c 3.354404,0.0718 6.794374,-1.00957 8.899214,-2.5812 v -5.61819 c 2.77492,-1.5671 4.51871,-3.10458 5.21368,-6.78677 -0.082,-3.97794 -5.24322,-8.03114 -10.87682,-3.9552 -0.0172,-1.72433 0.42646,-3.49986 -2.51694,-4.89906 v -1.93265 h 1.9776 v -1.5731 h -1.9776 v -1.4832 h -1.438264 v 1.4832 h -2.02255 v 1.5731 h 2.02255 v 1.93265 c -1.33405,0.67285 -2.71237,1.25717 -2.5619,4.89906 -6.79385,-4.33815 -10.86836,-0.0102 -10.87681,3.9552 0.61941,3.57621 1.587368,4.18056 4.5395,6.78677 v 5.61819 c 2.4859,1.70725 6.38498,2.6561 9.61834,2.5812 z"
         id="path95"
         sodipodi:nodetypes="cccccccccccccccccccccc" /><path
         style="fill:#000000;stroke:#ffffff;stroke-width:0.4;stroke-linecap:butt;stroke-linejoin:miter;stroke-dasharray:none;stroke-opacity:1"
         d="m 90.160716,394.53177 c 6.42202,-2.495 12.604004,-2.58965 18.517554,0"
         id="path96"
         sodipodi:nodetypes="cc" /><path
         style="fill:#000000;stroke:#ffffff;stroke-width:0.4;stroke-linecap:butt;stroke-linejoin:miter;stroke-dasharray:none;stroke-opacity:1"
         d="m 90.160716,391.61032 c 6.06223,-1.69104 12.201974,-2.19366 18.517554,0"
         id="path97"
         sodipodi:nodetypes="cc" /><path
         style="fill:#000000;stroke:#ffffff;stroke-width:0.4;stroke-linecap:butt;stroke-linejoin:miter;stroke-dasharray:none;stroke-opacity:1"
         d="m 91.823696,388.23941 c -6.935847,-3.49413 -4.746582,-10.29515 -0.943852,-10.24758 4.48376,0.066 9.327626,2.85039 8.944152,7.9104 -0.60422,-5.06886 4.174564,-7.91185 8.404814,-7.82051 3.54415,0.10766 7.17996,5.55564 -0.89891,10.15768"
         id="path99"
         sodipodi:nodetypes="ccccc" /><path
         style="fill:#000000;stroke:#ffffff;stroke-width:0.4;stroke-linecap:butt;stroke-linejoin:miter;stroke-dasharray:none;stroke-opacity:1"
         d="m 108.67827,388.91358 c -4.16243,-2.91161 -14.445544,-3.19444 -18.562504,-0.045"
         id="path98"
         sodipodi:nodetypes="cc" /></g><g
       id="g104"
       transform="translate(-39.453477,-227.49977)"
       style="fill:#ffffff;stroke:#000000"
       inkscape:export-filename="wqueen.png"
       inkscape:export-xdpi="63.119999"
       inkscape:export-ydpi="63.119999"><path
         style="fill:#ffffff;stroke:#000000;stroke-width:1;stroke-linecap:butt;stroke-linejoin:round;stroke-dasharray:none;stroke-opacity:1"
         d="m 99.779056,397.11297 c 3.354404,0.0718 6.794374,-1.00957 8.899214,-2.5812 v -5.61819 c 2.77492,-1.5671 4.51871,-3.10458 5.21368,-6.78677 -0.082,-3.97794 -5.24322,-8.03114 -10.87682,-3.9552 -0.0172,-1.72433 0.42646,-3.49986 -2.51694,-4.89906 v -1.93265 h 1.9776 v -1.5731 h -1.9776 v -1.4832 h -1.438264 v 1.4832 h -2.02255 v 1.5731 h 2.02255 v 1.93265 c -1.33405,0.67285 -2.71237,1.25717 -2.5619,4.89906 -6.79385,-4.33815 -10.86836,-0.0102 -10.87681,3.9552 0.61941,3.57621 1.587368,4.18056 4.5395,6.78677 v 5.61819 c 2.4859,1.70725 6.38498,2.6561 9.61834,2.5812 z"
         id="path100"
         sodipodi:nodetypes="cccccccccccccccccccccc" /><path
         style="fill:#ffffff;stroke:#000000;stroke-width:0.4;stroke-linecap:butt;stroke-linejoin:miter;stroke-dasharray:none;stroke-opacity:1"
         d="m 90.160716,394.53177 c 6.42202,-2.495 12.604004,-2.58965 18.517554,0"
         id="path101"
         sodipodi:nodetypes="cc" /><path
         style="fill:#ffffff;stroke:#000000;stroke-width:0.4;stroke-linecap:butt;stroke-linejoin:miter;stroke-dasharray:none;stroke-opacity:1"
         d="m 90.160716,391.61032 c 6.06223,-1.69104 12.201974,-2.19366 18.517554,0"
         id="path102"
         sodipodi:nodetypes="cc" /><path
         style="fill:#ffffff;stroke:#000000;stroke-width:0.4;stroke-linecap:butt;stroke-linejoin:miter;stroke-dasharray:none;stroke-opacity:1"
         d="m 91.823696,388.23941 c -6.935847,-3.49413 -4.746582,-10.29515 -0.943852,-10.24758 4.48376,0.066 9.327626,2.85039 8.944152,7.9104 -0.60422,-5.06886 4.174564,-7.91185 8.404814,-7.82051 3.54415,0.10766 7.17996,5.55564 -0.89891,10.15768"
         id="path103"
         sodipodi:nodetypes="ccccc" /><path
         style="fill:#ffffff;stroke:#000000;stroke-width:0.4;stroke-linecap:butt;stroke-linejoin:miter;stroke-dasharray:none;stroke-opacity:1"
         d="m 108.67827,388.91358 c -4.16243,-2.91161 -14.445544,-3.19444 -18.562504,-0.045"
         id="path104"
         sodipodi:nodetypes="cc" /></g><g
       id="g125"
       transform="translate(-154.15445,-148.39566)"
       style="fill:#000000"
       inkscape:export-filename="bqueen.png"
       inkscape:export-xdpi="63.119999"
       inkscape:export-ydpi="63.119999"><path
         style="fill:#000000;stroke:#ffffff;stroke-width:1.065;stroke-linecap:butt;stroke-linejoin:miter;stroke-dasharray:none;stroke-opacity:1"
         d="m 169.2748,350.79753 c 5.24202,0.63736 13.64725,0.72212 19.0379,-0.0318 1.11605,-0.4618 0.87171,-1.46847 0.54838,-2.25818 -0.39345,-0.94838 -0.79581,-1.873 -1.43826,-2.15738 v -2.60686 l 2.74168,-3.50573 1.39331,-9.34868 c 3.08091,0.045 3.33807,-2.96639 1.43825,-4.13497 -1.67609,-1.00439 -4.37887,0.88542 -2.472,3.50574 l -4.35972,6.9216 0.045,-8.89921 c 2.25551,-1.05159 1.99847,-3.7547 -0.22473,-4.22487 -3.12441,-0.50093 -3.34209,3.09692 -1.43826,3.9552 l -3.32596,9.16888 -2.0675,-10.33748 c 2.56003,-1.25479 1.32235,-3.91153 -0.4944,-3.9552 -1.82277,0.0246 -2.95263,2.1321 -0.76407,4.00015 l -1.88771,9.61835 -3.73048,-8.80933 c 1.78086,-0.80636 1.69637,-3.82066 -0.62924,-4.13499 -2.74438,-0.22033 -3.14313,3.51643 -0.53934,4.26985 l 0.0449,9.34865 -4.67433,-6.96656 c 1.61713,-1.81455 0.11365,-4.2153 -2.47201,-3.23608 -1.82535,0.97514 -1.47507,3.79611 1.4832,3.82039 l 1.52815,9.48349 2.51695,3.59566 v 2.33714 c -0.90787,0.5139 -1.43285,1.31497 -1.66298,2.33717 -0.0192,0.9283 -0.16762,1.98627 1.40332,2.24503 z"
         id="path122"
         sodipodi:nodetypes="ccccccccccccccccccccccccccccccc" /><path
         style="fill:#000000;stroke:#ffffff;stroke-width:0.365;stroke-linecap:butt;stroke-linejoin:miter;stroke-dasharray:none;stroke-opacity:1"
         d="m 167.87152,348.5525 c 6.8402,-1.44316 13.87979,-1.35764 21.07945,-0.0449"
         id="path123"
         sodipodi:nodetypes="cc" /><path
         style="fill:#000000;stroke:#ffffff;stroke-width:0.365;stroke-linecap:butt;stroke-linejoin:miter;stroke-dasharray:none;stroke-opacity:1"
         d="m 169.44461,346.12545 c 6.14351,-0.95056 12.11839,-0.72068 18.02315,0"
         id="path124"
         sodipodi:nodetypes="cc" /><path
         style="fill:#000000;stroke:#ffffff;stroke-width:0.365;stroke-linecap:butt;stroke-linejoin:miter;stroke-dasharray:none;stroke-opacity:1"
         d="m 169.26483,343.33883 c 6.20727,-1.02052 12.34008,-0.84949 18.42766,0.045"
         id="path125"
         sodipodi:nodetypes="cc" /></g><g
       id="g129"
       transform="translate(-118.19803,-148.39566)"
       style="fill:#ffffff;stroke:#000000"
       inkscape:export-filename="queen.png"
       inkscape:export-xdpi="63.119999"
       inkscape:export-ydpi="63.119999"><path
         style="fill:#ffffff;stroke:#000000;stroke-width:1.065;stroke-linecap:butt;stroke-linejoin:miter;stroke-dasharray:none;stroke-opacity:1"
         d="m 169.2748,350.79753 c 5.24202,0.63736 13.64725,0.72212 19.0379,-0.0318 1.11605,-0.4618 0.87171,-1.46847 0.54838,-2.25818 -0.39345,-0.94838 -0.79581,-1.873 -1.43826,-2.15738 v -2.60686 l 2.74168,-3.50573 1.39331,-9.34868 c 3.08091,0.045 3.33807,-2.96639 1.43825,-4.13497 -1.67609,-1.00439 -4.37887,0.88542 -2.472,3.50574 l -4.35972,6.9216 0.045,-8.89921 c 2.25551,-1.05159 1.99847,-3.7547 -0.22473,-4.22487 -3.12441,-0.50093 -3.34209,3.09692 -1.43826,3.9552 l -3.32596,9.16888 -2.0675,-10.33748 c 2.56003,-1.25479 1.32235,-3.91153 -0.4944,-3.9552 -1.82277,0.0246 -2.95263,2.1321 -0.76407,4.00015 l -1.88771,9.61835 -3.73048,-8.80933 c 1.78086,-0.80636 1.69637,-3.82066 -0.62924,-4.13499 -2.74438,-0.22033 -3.14313,3.51643 -0.53934,4.26985 l 0.0449,9.34865 -4.67433,-6.96656 c 1.61713,-1.81455 0.11365,-4.2153 -2.47201,-3.23608 -1.82535,0.97514 -1.47507,3.79611 1.4832,3.82039 l 1.52815,9.48349 2.51695,3.59566 v 2.33714 c -0.90787,0.5139 -1.43285,1.31497 -1.66298,2.33717 -0.0192,0.9283 -0.16762,1.98627 1.40332,2.24503 z"
         id="path126"
         sodipodi:nodetypes="ccccccccccccccccccccccccccccccc" /><path
         style="fill:#ffffff;stroke:#000000;stroke-width:0.365;stroke-linecap:butt;stroke-linejoin:miter;stroke-dasharray:none;stroke-opacity:1"
         d="m 167.87152,348.5525 c 6.8402,-1.44316 13.87979,-1.35764 21.07945,-0.0449"
         id="path127"
         sodipodi:nodetypes="cc" /><path
         style="fill:#ffffff;stroke:#000000;stroke-width:0.365;stroke-linecap:butt;stroke-linejoin:miter;stroke-dasharray:none;stroke-opacity:1"
         d="m 169.44461,346.12545 c 6.14351,-0.95056 12.11839,-0.72068 18.02315,0"
         id="path128"
         sodipodi:nodetypes="cc" /><path
         style="fill:#ffffff;stroke:#000000;stroke-width:0.365;stroke-linecap:butt;stroke-linejoin:miter;stroke-dasharray:none;stroke-opacity:1"
         d="m 169.26483,343.33883 c 6.20727,-1.02052 12.34008,-0.84949 18.42766,0.045"
         id="path129"
         sodipodi:nodetypes="cc" /></g></g></svg>
